<svg id="Layer_1" enable-background="new 0 0 512.001 512.001" height="512" viewBox="0 0 512.001 512.001" width="512" xmlns="http://www.w3.org/2000/svg"><path d="m140 426.001c0 11.046-8.954 20-20 20-66.168 0-120-53.832-120-120v-140c0-66.168 53.832-120 120-120h95c11.046 0 20 8.954 20 20s-8.954 20-20 20h-95c-44.112 0-80 35.888-80 80v140c0 44.112 35.888 80 80 80 11.046 0 20 8.954 20 20zm252-360c-11.046 0-20 8.954-20 20s8.954 20 20 20c44.112 0 80 35.888 80 80v140c0 44.112-35.888 80-80 80h-93c-11.046 0-20 8.954-20 20s8.954 20 20 20h93c66.168 0 120-53.832 120-120v-140c0-66.168-53.832-120-120-120zm-51.061 101.221c3.898 3.854 8.979 5.778 14.061 5.778 5.156 0 10.312-1.982 14.223-5.938 7.767-7.854 7.694-20.518-.16-28.283l-37.796-37.371c-4.042-3.994-6.267-9.289-6.267-14.907s2.225-10.913 6.266-14.908l37.796-37.37c7.854-7.766 7.927-20.429.16-28.283-7.767-7.855-20.43-7.928-28.283-.16l-37.796 37.369c-11.699 11.566-18.143 26.962-18.143 43.352s6.443 31.785 18.143 43.352zm-167.877 177.557c-7.854-7.767-20.518-7.694-28.283.16-7.767 7.854-7.694 20.518.16 28.283l37.796 37.371c4.041 3.994 6.266 9.289 6.266 14.907s-2.225 10.913-6.266 14.908l-37.796 37.37c-7.854 7.766-7.927 20.429-.16 28.283 3.912 3.957 9.065 5.938 14.223 5.938 5.08 0 10.163-1.924 14.061-5.778l37.796-37.369c11.698-11.566 18.141-26.962 18.141-43.351s-6.443-31.785-18.143-43.352zm113.938-20.778v-114.974c0-13.305-7.192-25.643-18.771-32.197-11.576-6.555-25.857-6.375-37.266.471-.048.028-17.397 10.638-17.397 10.638-9.424 5.763-12.392 18.073-6.629 27.496 5.762 9.425 18.076 12.389 27.496 6.629l12.567-7.685v109.621c0 11.046 8.954 20 20 20 11.046.001 20-8.954 20-19.999z"/></svg>